<svg width="25" height="24" viewBox="0 0 25 24" fill="none" xmlns="http://www.w3.org/2000/svg">
<mask id="mask0_18_12" style="mask-type:alpha" maskUnits="userSpaceOnUse" x="0" y="0" width="25" height="24">
<rect x="0.5" width="24" height="24" fill="#D9D9D9"/>
</mask>
<g mask="url(#mask0_18_12)">
<path d="M9.19999 17.3C9.01665 17.1167 8.92499 16.8833 8.92499 16.6C8.92499 16.3167 9.01665 16.0833 9.19999 15.9L13.1 12L9.19999 8.09999C9.01665 7.91665 8.92499 7.68332 8.92499 7.39999C8.92499 7.11665 9.01665 6.88332 9.19999 6.69999C9.38332 6.51665 9.61665 6.42499 9.89999 6.42499C10.1833 6.42499 10.4167 6.51665 10.6 6.69999L15.2 11.3C15.3 11.4 15.3708 11.5083 15.4125 11.625C15.4542 11.7417 15.475 11.8667 15.475 12C15.475 12.1333 15.4542 12.2583 15.4125 12.375C15.3708 12.4917 15.3 12.6 15.2 12.7L10.6 17.3C10.4167 17.4833 10.1833 17.575 9.89999 17.575C9.61665 17.575 9.38332 17.4833 9.19999 17.3Z" fill="#008B90"/>
</g>
</svg>
